<svg id="visual" viewBox="0 0 900 600" width="900" height="600" 
xmlns="http://www.w3.org/2000/svg" 
xmlns:xlink="http://www.w3.org/1999/xlink" version="1.1">
<rect x="0" y="0" width="900" height="600" fill="#001220">
</rect>
<path d="M0 296L21.5 309.3C43 322.7 86 349.3 128.8 363.5C171.7 377.7 214.3 379.3 257.2 372.2C300 365 343 349 385.8 335.3C428.7 321.7 471.3 310.3 514.2 312.8C557 315.3 600 331.7 642.8 343.2C685.7 354.7 728.3 361.3 771.2 357.3C814 353.3 857 338.7 878.5 331.3L900 324L900 601L878.5 601C857 601 814 601 771.2 601C728.3 601 685.7 601 642.8 601C600 601 557 601 514.2 601C471.3 601 428.7 601 385.8 601C343 601 300 601 257.2 601C214.3 601 171.7 601 128.8 601C86 601 43 601 21.5 601L0 601Z" fill="#69d7fa">
</path>
<path d="M0 420L21.5 417.2C43 414.3 86 408.7 128.8 402C171.7 395.3 214.3 387.7 257.2 384.3C300 381 343 382 385.8 379.8C428.7 377.7 471.3 372.3 514.2 368C557 363.7 600 360.3 642.8 369.5C685.7 378.7 728.3 400.3 771.2 411.3C814 422.3 857 422.7 878.5 422.8L900 423L900 601L878.5 601C857 601 814 601 771.2 601C728.3 601 685.7 601 642.8 601C600 601 557 601 514.2 601C471.3 601 428.7 601 385.8 601C343 601 300 601 257.2 601C214.3 601 171.7 601 128.8 601C86 601 43 601 21.5 601L0 601Z" fill="#55c0ea">
</path>
<path d="M0 436L21.5 437.5C43 439 86 442 128.8 440.5C171.7 439 214.3 433 257.2 425.5C300 418 343 409 385.8 401.2C428.7 393.3 471.3 386.7 514.2 391.8C557 397 600 414 642.8 427.8C685.7 441.7 728.3 452.3 771.2 455C814 457.7 857 452.3 878.5 449.7L900 447L900 601L878.5 601C857 601 814 601 771.2 601C728.3 601 685.7 601 642.8 601C600 601 557 601 514.2 601C471.3 601 428.7 601 385.8 601C343 601 300 601 257.2 601C214.3 601 171.7 601 128.8 601C86 601 43 601 21.5 601L0 601Z" fill="#44a9d9">
</path>
<path d="M0 447L21.5 441.7C43 436.3 86 425.7 128.8 425C171.7 424.3 214.3 433.7 257.2 443.8C300 454 343 465 385.8 470.7C428.7 476.3 471.3 476.7 514.2 471.5C557 466.3 600 455.7 642.8 455C685.7 454.3 728.3 463.7 771.2 470.7C814 477.7 857 482.3 878.5 484.7L900 487L900 601L878.5 601C857 601 814 601 771.2 601C728.3 601 685.7 601 642.8 601C600 601 557 601 514.2 601C471.3 601 428.7 601 385.8 601C343 601 300 601 257.2 601C214.3 601 171.7 601 128.8 601C86 601 43 601 21.5 601L0 601Z" fill="#3692c7">
</path>
<path d="M0 479L21.5 477.3C43 475.7 86 472.3 128.8 476C171.7 479.7 214.3 490.3 257.2 493.5C300 496.7 343 492.3 385.8 492.8C428.7 493.3 471.3 498.7 514.2 493C557 487.3 600 470.7 642.8 469.3C685.7 468 728.3 482 771.2 490C814 498 857 500 878.5 501L900 502L900 601L878.5 601C857 601 814 601 771.2 601C728.3 601 685.7 601 642.8 601C600 601 557 601 514.2 601C471.3 601 428.7 601 385.8 601C343 601 300 601 257.2 601C214.3 601 171.7 601 128.8 601C86 601 43 601 21.5 601L0 601Z" fill="#2b7cb4">
</path>
<path d="M0 516L21.5 515.2C43 514.3 86 512.7 128.8 509C171.7 505.3 214.3 499.7 257.2 498.5C300 497.3 343 500.7 385.8 504.2C428.7 507.7 471.3 511.3 514.2 517.2C557 523 600 531 642.8 529.5C685.7 528 728.3 517 771.2 510.5C814 504 857 502 878.5 501L900 500L900 601L878.5 601C857 601 814 601 771.2 601C728.3 601 685.7 601 642.8 601C600 601 557 601 514.2 601C471.3 601 428.7 601 385.8 601C343 601 300 601 257.2 601C214.3 601 171.7 601 128.8 601C86 601 43 601 21.5 601L0 601Z" fill="#2466a0">
</path>
<path d="M0 537L21.5 540.2C43 543.3 86 549.7 128.8 554.5C171.7 559.3 214.3 562.7 257.2 560.3C300 558 343 550 385.8 547.5C428.7 545 471.3 548 514.2 549.2C557 550.3 600 549.7 642.8 548.2C685.7 546.7 728.3 544.3 771.2 543.5C814 542.7 857 543.3 878.5 543.7L900 544L900 601L878.5 601C857 601 814 601 771.2 601C728.3 601 685.7 601 642.8 601C600 601 557 601 514.2 601C471.3 601 428.7 601 385.8 601C343 601 300 601 257.2 601C214.3 601 171.7 601 128.8 601C86 601 43 601 21.5 601L0 601Z" fill="#1f518c">
</path>
</svg>