<svg id="visual" viewBox="0 0 900 600" width="900" height="600" 
xmlns="http://www.w3.org/2000/svg" 
xmlns:xlink="http://www.w3.org/1999/xlink" 
version="1.1">
<rect x="0" y="0" width="900" height="600" fill="#001220">
</rect>
<path d="M0 344L11.5 343.7C23 343.3 46 342.7 69 346.2C92 349.7 115 357.3 138.2 368.2C161.3 379 184.7 393 207.8 401.3C231 409.7 254 412.3 277 402C300 391.7 323 368.3 346 359.5C369 350.7 392 356.3 415.2 362C438.3 367.7 461.7 373.3 484.8 378.7C508 384 531 389 554 391.2C577 393.3 600 392.7 623 385.8C646 379 669 366 692.2 368C715.3 370 738.7 387 761.8 392C785 397 808 390 831 388.3C854 386.7 877 390.3 888.5 392.2L900 394L900 601L888.5 601C877 601 854 601 831 601C808 601 785 601 761.8 601C738.7 601 715.3 601 692.2 601C669 601 646 601 623 601C600 601 577 601 554 601C531 601 508 601 484.8 601C461.7 601 438.3 601 415.2 601C392 601 369 601 346 601C323 601 300 601 277 601C254 601 231 601 207.8 601C184.7 601 161.3 601 138.2 601C115 601 92 601 69 601C46 601 23 601 11.5 601L0 601Z" fill="#fa7268">
</path>
<path d="M0 369L11.5 379.7C23 390.3 46 411.7 69 421.7C92 431.7 115 430.3 138.2 429C161.3 427.7 184.7 426.3 207.8 420.3C231 414.3 254 403.7 277 394.5C300 385.3 323 377.7 346 379.3C369 381 392 392 415.2 395.2C438.3 398.3 461.7 393.7 484.8 389.5C508 385.3 531 381.7 554 386.2C577 390.7 600 403.3 623 404.3C646 405.3 669 394.7 692.2 388C715.3 381.3 738.7 378.7 761.8 380.3C785 382 808 388 831 398.3C854 408.7 877 423.3 888.5 430.7L900 438L900 601L888.5 601C877 601 854 601 831 601C808 601 785 601 761.8 601C738.7 601 715.3 601 692.2 601C669 601 646 601 623 601C600 601 577 601 554 601C531 601 508 601 484.8 601C461.7 601 438.3 601 415.2 601C392 601 369 601 346 601C323 601 300 601 277 601C254 601 231 601 207.8 601C184.7 601 161.3 601 138.2 601C115 601 92 601 69 601C46 601 23 601 11.5 601L0 601Z" fill="#f46767">
</path>
<path d="M0 438L11.5 439.8C23 441.7 46 445.3 69 445.2C92 445 115 441 138.2 433.8C161.3 426.7 184.7 416.3 207.8 415C231 413.7 254 421.3 277 430.8C300 440.3 323 451.7 346 449.2C369 446.7 392 430.3 415.2 429.7C438.3 429 461.7 444 484.8 449.3C508 454.7 531 450.3 554 443.3C577 436.3 600 426.7 623 423C646 419.3 669 421.7 692.2 423.8C715.3 426 738.7 428 761.8 428.7C785 429.3 808 428.7 831 424.8C854 421 877 414 888.5 410.5L900 407L900 601L888.5 601C877 601 854 601 831 601C808 601 785 601 761.8 601C738.7 601 715.3 601 692.2 601C669 601 646 601 623 601C600 601 577 601 554 601C531 601 508 601 484.8 601C461.7 601 438.3 601 415.2 601C392 601 369 601 346 601C323 601 300 601 277 601C254 601 231 601 207.8 601C184.7 601 161.3 601 138.2 601C115 601 92 601 69 601C46 601 23 601 11.5 601L0 601Z" fill="#ee5c67">
</path>
<path d="M0 465L11.5 461.8C23 458.7 46 452.3 69 453C92 453.7 115 461.3 138.2 464.3C161.3 467.3 184.7 465.7 207.8 461.2C231 456.7 254 449.3 277 451.8C300 454.3 323 466.7 346 470C369 473.3 392 467.7 415.2 463.5C438.3 459.3 461.7 456.7 484.8 452.7C508 448.7 531 443.3 554 443C577 442.7 600 447.3 623 448.3C646 449.3 669 446.7 692.2 449.5C715.3 452.3 738.7 460.7 761.8 465.2C785 469.7 808 470.3 831 465C854 459.7 877 448.3 888.5 442.7L900 437L900 601L888.5 601C877 601 854 601 831 601C808 601 785 601 761.8 601C738.7 601 715.3 601 692.2 601C669 601 646 601 623 601C600 601 577 601 554 601C531 601 508 601 484.8 601C461.7 601 438.3 601 415.2 601C392 601 369 601 346 601C323 601 300 601 277 601C254 601 231 601 207.8 601C184.7 601 161.3 601 138.2 601C115 601 92 601 69 601C46 601 23 601 11.5 601L0 601Z" fill="#e75167">
</path>
<path d="M0 494L11.5 494.3C23 494.7 46 495.3 69 496.5C92 497.7 115 499.3 138.2 497.3C161.3 495.3 184.7 489.7 207.8 490C231 490.3 254 496.7 277 495.8C300 495 323 487 346 481.2C369 475.3 392 471.7 415.2 473.3C438.3 475 461.7 482 484.8 489C508 496 531 503 554 505.2C577 507.3 600 504.7 623 501C646 497.3 669 492.7 692.2 487.7C715.3 482.7 738.7 477.3 761.8 472.8C785 468.3 808 464.7 831 471C854 477.3 877 493.7 888.5 501.8L900 510L900 601L888.5 601C877 601 854 601 831 601C808 601 785 601 761.8 601C738.7 601 715.3 601 692.2 601C669 601 646 601 623 601C600 601 577 601 554 601C531 601 508 601 484.8 601C461.7 601 438.3 601 415.2 601C392 601 369 601 346 601C323 601 300 601 277 601C254 601 231 601 207.8 601C184.7 601 161.3 601 138.2 601C115 601 92 601 69 601C46 601 23 601 11.5 601L0 601Z" fill="#df4667">
</path>
<path d="M0 536L11.5 532.8C23 529.7 46 523.3 69 516.8C92 510.3 115 503.7 138.2 503.7C161.3 503.7 184.7 510.3 207.8 514.7C231 519 254 521 277 519.5C300 518 323 513 346 511.8C369 510.7 392 513.3 415.2 511.5C438.3 509.7 461.7 503.3 484.8 502.8C508 502.3 531 507.7 554 510.7C577 513.7 600 514.3 623 515.8C646 517.3 669 519.7 692.2 517.7C715.3 515.7 738.7 509.3 761.8 505.3C785 501.3 808 499.7 831 502.7C854 505.7 877 513.3 888.5 517.2L900 521L900 601L888.5 601C877 601 854 601 831 601C808 601 785 601 761.8 601C738.7 601 715.3 601 692.2 601C669 601 646 601 623 601C600 601 577 601 554 601C531 601 508 601 484.8 601C461.7 601 438.3 601 415.2 601C392 601 369 601 346 601C323 601 300 601 277 601C254 601 231 601 207.8 601C184.7 601 161.3 601 138.2 601C115 601 92 601 69 601C46 601 23 601 11.5 601L0 601Z" fill="#d73b67">
</path>
<path d="M0 541L11.5 541.3C23 541.7 46 542.3 69 543.8C92 545.3 115 547.7 138.2 546.3C161.3 545 184.7 540 207.8 539.2C231 538.3 254 541.7 277 543.8C300 546 323 547 346 546C369 545 392 542 415.2 542C438.3 542 461.7 545 484.8 547.5C508 550 531 552 554 548.7C577 545.3 600 536.7 623 531.3C646 526 669 524 692.2 527C715.3 530 738.7 538 761.8 543.3C785 548.7 808 551.3 831 547.8C854 544.3 877 534.7 888.5 529.8L900 525L900 601L888.5 601C877 601 854 601 831 601C808 601 785 601 761.8 601C738.7 601 715.3 601 692.2 601C669 601 646 601 623 601C600 601 577 601 554 601C531 601 508 601 484.8 601C461.7 601 438.3 601 415.2 601C392 601 369 601 346 601C323 601 300 601 277 601C254 601 231 601 207.8 601C184.7 601 161.3 601 138.2 601C115 601 92 601 69 601C46 601 23 601 11.5 601L0 601Z" fill="#cf3068">
</path>
<path d="M0 569L11.5 567.7C23 566.3 46 563.7 69 565.5C92 567.3 115 573.7 138.2 572.2C161.3 570.7 184.7 561.3 207.8 558.5C231 555.7 254 559.3 277 563.7C300 568 323 573 346 572.2C369 571.3 392 564.7 415.2 562C438.3 559.3 461.7 560.7 484.8 560.8C508 561 531 560 554 558.8C577 557.7 600 556.3 623 556.2C646 556 669 557 692.2 556.2C715.3 555.3 738.7 552.7 761.8 554C785 555.3 808 560.7 831 561.2C854 561.7 877 557.3 888.5 555.2L900 553L900 601L888.5 601C877 601 854 601 831 601C808 601 785 601 761.8 601C738.7 601 715.3 601 692.2 601C669 601 646 601 623 601C600 601 577 601 554 601C531 601 508 601 484.8 601C461.7 601 438.3 601 415.2 601C392 601 369 601 346 601C323 601 300 601 277 601C254 601 231 601 207.8 601C184.7 601 161.3 601 138.2 601C115 601 92 601 69 601C46 601 23 601 11.5 601L0 601Z" fill="#c62368">
</path>
</svg>